<?xml version="1.0"?>
<svg xmlns:rdf="http://www.w3.org/1999/02/22-rdf-syntax-ns#" xmlns="http://www.w3.org/2000/svg" xmlns:cc="http://web.resource.org/cc/" xmlns:dc="http://purl.org/dc/elements/1.1/" xmlns:svg="http://www.w3.org/2000/svg" id="Calque_1" xml:space="preserve" viewBox="0 0 295.052 462.281" version="1.0">
<symbol id="Nuages_de_temp&#xEA;te" stroke-linejoin="round" transform="translate(-90.406 -262.56)" stroke="#00618e" stroke-linecap="round" viewBox="-50.393 -23.148 100.786 46.297">
	<linearGradient id="XMLID_3_" y2="22.648" gradientUnits="userSpaceOnUse" x2="-7.4678" y1="-4.4658" x1="-7.4678">
		<stop id="stop5" stop-color="#417ba1" offset=".1067"/>
		<stop id="stop7" stop-color="#a8bdd0" offset=".4213"/>
		<stop id="stop9" stop-color="#dbe7ed" offset=".736"/>
		<stop id="stop11" stop-color="#d7e3eb" offset=".7893"/>
		<stop id="stop13" stop-color="#c9d8e3" offset=".8499"/>
		<stop id="stop15" stop-color="#b2c6d8" offset=".914"/>
		<stop id="stop17" stop-color="#93afc9" offset=".9801"/>
		<stop id="stop19" stop-color="#88a7c4" offset="1"/>
	</linearGradient>
	<path id="path21" d="m-9.8 12.619c3.027 17.639 29.567 9.817 20.562-6.531 7.779 1.758 11.442-4.69 11.899-10.554h-58.947c-3.446 4.902 0.054 14.902 8.813 12.898-0.26 11.005 10.74 14.505 17.673 4.187z" fill="url(#XMLID_3_)"/>
	<linearGradient id="XMLID_4_" gradientUnits="userSpaceOnUse" x2="-.0000014908" y2="11.456" y1="-22.648">
		<stop id="stop24" stop-color="#759ab8" offset=".1067"/>
		<stop id="stop26" stop-color="#a8bdd0" offset=".264"/>
		<stop id="stop28" stop-color="#d1dfe7" offset=".618"/>
		<stop id="stop30" stop-color="#cddce5" offset=".6954"/>
		<stop id="stop32" stop-color="#c1d2df" offset=".7718"/>
		<stop id="stop34" stop-color="#adc3d4" offset=".8477"/>
		<stop id="stop36" stop-color="#90adc5" offset=".9234"/>
		<stop id="stop38" stop-color="#6a93b3" offset=".9983"/>
		<stop id="stop40" stop-color="#6a93b3" offset="1"/>
	</linearGradient>
	<path id="path42" d="m-6.955-10.018s1.209 21.474 20.563 21.474c19.353 0 18.747-20.212 18.747-20.212 7.257 3.791 17.539-3.788 17.539-13.893h-99.786c0.604 6.315 5.442 13.263 15.724 11.368 4.836 9.472 16.328 15.79 27.213 1.263z" fill="url(#XMLID_4_)"/>
</symbol>
<use id="use44" transform="matrix(1 0 0 -1 -40.013 -239.41)" height="46.297001" width="100.786" y="-23.148001" x="-50.393002"/>
<g id="g4640" fill-rule="evenodd" fill="#500" transform="matrix(.96927 .246 -.246 .96927 44.516 -26.923)"><path id="path2254" d="m-47.925 165.1l-1.451 5.32 59.075 16.03 1.451-5.32-59.075-16.03z"/><path id="path3228" d="m-11.513 155.28l-1.796 5.19 28.19 9.74 1.796-5.18-28.19-9.75z"/><path id="path3230" d="m-3.1526 137.18l-2.4183 4.98 26.739 13.06 2.419-4.98-26.74-13.06z"/><path id="path3232" d="m6.7968 120.32l-2.9019 4.7 25.495 15.89 2.902-4.7-25.495-15.89z"/><path id="path3234" d="m18.612 104.57l-3.386 4.28 23.492 18.59 3.455-4.35-23.561-18.52z"/><path id="path3236" d="m9.837 68.019l-3.8693 3.939 43.805 42.842 3.869-3.94-43.805-42.841z"/><path id="path3240" d="m47.147 76.932l-4.283 3.524 19.069 22.874 4.284-3.528-19.07-22.87z"/><path id="path3242" d="m63.039 65.532l-4.56 3.109 16.79 24.667 4.56-3.11-16.79-24.666z"/><path id="path3244" d="m80.243 55.721l-4.905 2.556 13.749 26.739 4.906-2.556-13.75-26.739z"/><path id="path3246" d="m98.622 48.19l-5.182 2.003 11.19 27.914 5.12-2.073-11.128-27.844z"/><path id="path3248" d="m109.12 12.123l-5.32 1.382 15.83 59.42 5.39-1.451-15.9-59.351z"/><path id="path3250" d="m136.69 37.964l-5.46 0.76 4.22 30.125 5.53-0.76-4.29-30.125z"/><path id="path3252" d="m156.52 36.858l-5.53 0.138 0.9 29.78 5.53-0.138-0.9-29.78z"/><path id="path3254" d="m170.69 36.444l-1.8 30.263 5.53 0.345 1.79-30.332-5.52-0.276z"/><path id="path3256" d="m190.17 38.447l-4.7 29.572 5.46 0.899 4.7-29.572-5.46-0.899z"/><path id="path3258" d="m217.53 12.054l-15.61 59.282 5.32 1.451 15.68-59.282-5.39-1.451z"/><path id="path3260" d="m228.52 48.259l-10.92 27.775 5.11 2.004 10.92-27.776-5.11-2.003z"/><path id="path3262" d="m246.41 55.928l-13.47 26.601 4.91 2.487 13.47-26.601-4.91-2.487z"/><path id="path3264" d="m263.55 65.67l-16.38 25.012 4.63 3.04 16.38-25.012-4.63-3.04z"/><path id="path3266" d="m279.72 76.794l-19 23.216 4.28 3.45 19-23.211-4.28-3.455z"/><path id="path3268" d="m316.75 67.95l-43.46 43.05 3.94 3.93 43.46-43.041-3.94-3.939z"/><path id="path3270" d="m308.04 104.16l-23.21 19.13 3.52 4.22 23.22-19.07-3.53-4.28z"/><path id="path3272" d="m319.86 120.05l-25.29 16.23 2.97 4.63 25.29-16.23-2.97-4.63z"/><path id="path3274" d="m329.81 137.04l-26.74 13.55 2.49 4.9 26.74-13.47-2.49-4.98z"/><path id="path3276" d="m337.96 154.94l-27.7 10.64 2 5.11 27.71-10.57-2.01-5.18z"/><path id="path3278" d="m374.65 165.44l-59.07 15.69 1.45 5.32 59-15.62-1.38-5.39z"/><path id="path3280" d="m348.81 192.66l-29.5 4.7 0.89 5.46 29.44-4.7-0.83-5.46z"/><path id="path3282" d="m351.02 212.29l-29.71 1.52 0.28 5.52 29.71-1.52-0.28-5.52z"/><path id="path3284" d="m321.45 230.25l-0.28 5.53 29.99 1.59 0.28-5.53-29.99-1.59z"/><path id="path3290" d="m320.07 246.83l-0.76 5.53 29.5 4.28 0.76-5.45-29.5-4.36z"/><path id="path3292" d="m317.03 263.14l-1.45 5.39 59 15.89 1.45-5.32-59-15.96z"/><path id="path3294" d="m311.78 279.17l-1.87 5.18 28.12 10.3 1.87-5.19-28.12-10.29z"/><path id="path3296" d="m305.76 294.09l-2.55 4.91 26.53 13.75 2.56-4.91-26.54-13.75z"/><path id="path4267" d="m297.47 309.02l-3.04 4.63 25.08 16.23 2.98-4.63-25.02-16.23z"/><path id="path4269" d="m288.28 322.08l-3.52 4.28 23.08 18.86 3.52-4.28-23.08-18.86z"/><path id="path4271" d="m277.09 334.86l-3.94 3.87 43.32 43.25 3.94-3.94-43.32-43.18z"/><path id="path4273" d="m265.14 346.12l-4.36 3.46 18.94 23.28 4.28-3.45-18.86-23.29z"/><path id="path4275" d="m251.6 356.14l-4.63 2.97 16.44 25.01 4.63-3.04-16.44-24.94z"/><path id="path4277" d="m237.71 364.64l-4.91 2.49 13.61 26.39 4.91-2.49-13.61-26.39z"/><path id="path4279" d="m222.58 371.69l-5.19 2 10.85 27.71 5.18-2.08-10.84-27.63z"/><path id="path4281" d="m206.82 377.07l-5.32 1.39 15.62 59.07 5.32-1.45-15.62-59.01z"/><path id="path4283" d="m191 380.6l-5.46 0.9 4.56 29.5 5.46-0.9-4.56-29.5z"/><path id="path4285" d="m174.14 382.67l-5.53 0.35 1.87 29.85 5.53-0.35-1.87-29.85z"/><path id="path4287" d="m152.31 382.67l-1.38 29.85 5.52 0.28 1.39-29.85-5.53-0.28z"/><path id="path4289" d="m135.93 380.81l-4.49 29.36 5.46 0.83 4.49-29.37-5.46-0.82z"/><path id="path4291" d="m119.56 377.01l-15.2 59.07 5.32 1.38 15.2-59.07-5.32-1.38z"/><path id="path4293" d="m103.74 371.48l-10.784 27.77 5.182 2.01 10.712-27.78-5.11-2z"/><path id="path4295" d="m89.018 364.64l-13.68 26.39 4.905 2.56 13.681-26.4-4.906-2.55z"/><path id="path4297" d="m74.716 356l-15.892 25.22 4.699 2.9 15.891-25.15-4.698-2.97z"/><path id="path4299" d="m61.657 345.91l-18.793 23.29 4.283 3.45 18.794-23.28-4.284-3.46z"/><path id="path4301" d="m49.289 334.65l-43.114 43.18 3.869 3.87 43.184-43.11-3.939-3.94z"/><path id="path4303" d="m38.856 322.56l-23.077 18.79 3.455 4.29 23.077-18.8-3.455-4.28z"/><path id="path4305" d="m29.183 308.74l-25.081 16.1 2.9712 4.63 25.081-16.1-2.971-4.63z"/><path id="path4307" d="m21.168 294.58l-26.462 13.4 2.4868 4.91 26.463-13.41-2.488-4.9z"/><path id="path4309" d="m14.466 278.96l-27.637 10.64 2.004 5.18 27.637-10.64-2.004-5.18z"/><path id="path4311" d="m9.837 263.55l-59.144 15.27 1.382 5.32 59.144-15.27-1.382-5.32z"/><path id="path4313" d="m6.7968 247.25l-29.572 4.35 0.829 5.46 29.503-4.35-0.7602-5.46z"/><path id="path4315" d="m5.2768 230.67l-29.849 1.17 0.208 5.53 29.848-1.18-0.2072-5.52z"/><path id="path4317" d="m-24.364 212.29l-0.208 5.52 29.78 1.32 0.2761-5.53-29.848-1.31z"/><path id="path4319" d="m-21.946 192.66l-0.829 5.53 29.434 4.35 0.8288-5.45-29.434-4.43z"/></g><metadata><rdf:RDF><cc:Work><dc:format>image/svg+xml</dc:format><dc:type rdf:resource="http://purl.org/dc/dcmitype/StillImage"/><cc:license rdf:resource="http://creativecommons.org/licenses/publicdomain/"/><dc:publisher><cc:Agent rdf:about="http://openclipart.org/"><dc:title>Openclipart</dc:title></cc:Agent></dc:publisher><dc:title>graduation clock montre</dc:title><dc:date>2007-04-13T11:48:53</dc:date><dc:description>Graduation to create watch, pendulum and cuckoo. Graduation pour cr&#xE9;er des montres, pendules et autre coucou.</dc:description><dc:source>http://openclipart.org/detail/3925/graduation-clock-montre-by-geant</dc:source><dc:creator><cc:Agent><dc:title>geant</dc:title></cc:Agent></dc:creator><dc:subject><rdf:Bag><rdf:li>clip art</rdf:li><rdf:li>clipart</rdf:li><rdf:li>clock</rdf:li><rdf:li>graduation</rdf:li><rdf:li>image</rdf:li><rdf:li>media</rdf:li><rdf:li>minutes</rdf:li><rdf:li>montre</rdf:li><rdf:li>public domain</rdf:li><rdf:li>svg</rdf:li><rdf:li>time</rdf:li></rdf:Bag></dc:subject></cc:Work><cc:License rdf:about="http://creativecommons.org/licenses/publicdomain/"><cc:permits rdf:resource="http://creativecommons.org/ns#Reproduction"/><cc:permits rdf:resource="http://creativecommons.org/ns#Distribution"/><cc:permits rdf:resource="http://creativecommons.org/ns#DerivativeWorks"/></cc:License></rdf:RDF></metadata></svg>
