<?xml version="1.0" encoding="UTF-8" standalone="no"?>
<!-- Generator: Adobe Illustrator 12.0.0, SVG Export Plug-In . SVG Version: 6.00 Build 51448)  -->
<svg
   xmlns:dc="http://purl.org/dc/elements/1.1/"
   xmlns:cc="http://web.resource.org/cc/"
   xmlns:rdf="http://www.w3.org/1999/02/22-rdf-syntax-ns#"
   xmlns:svg="http://www.w3.org/2000/svg"
   xmlns="http://www.w3.org/2000/svg"
   xmlns:sodipodi="http://sodipodi.sourceforge.net/DTD/sodipodi-0.dtd"
   xmlns:inkscape="http://www.inkscape.org/namespaces/inkscape"
   version="1.1"
   id="Layer_1"
   width="211.218"
   height="211.219"
   viewBox="0 0 211.218 211.219"
   overflow="visible"
   enable-background="new 0 0 211.218 211.219"
   xml:space="preserve"
   sodipodi:version="0.32"
   inkscape:version="0.45.1"
   sodipodi:docname="Lazy_sleeping_barnstar.svg"
   sodipodi:docbase="/home/misza/Desktop"
   inkscape:output_extension="org.inkscape.output.svg.inkscape"><metadata
   id="metadata60"><rdf:RDF><cc:Work
       rdf:about=""><dc:format>image/svg+xml</dc:format><dc:type
         rdf:resource="http://purl.org/dc/dcmitype/StillImage" /></cc:Work></rdf:RDF></metadata><defs
   id="defs58" /><sodipodi:namedview
   inkscape:window-height="578"
   inkscape:window-width="693"
   inkscape:pageshadow="2"
   inkscape:pageopacity="0.0"
   guidetolerance="10.0"
   gridtolerance="10.0"
   objecttolerance="10.0"
   borderopacity="1.0"
   bordercolor="#666666"
   pagecolor="#ffffff"
   id="base"
   inkscape:zoom="1.7943462"
   inkscape:cx="105.609"
   inkscape:cy="105.6095"
   inkscape:window-x="579"
   inkscape:window-y="369"
   inkscape:current-layer="Layer_1" />

<ellipse
   fill-rule="evenodd"
   clip-rule="evenodd"
   fill="#D3D3D3"
   cx="95.528"
   cy="89.084"
   rx="78"
   ry="71"
   id="ellipse5" />
<g
   id="g7">
	<polygon
   fill-rule="evenodd"
   clip-rule="evenodd"
   fill="#AEDFFF"
   points="146.443,81.93 146.198,81.964 145.975,82.042    145.751,82.131 145.55,82.254 143.687,83.393 141.833,84.576 141.667,84.9 141.488,85.234 141.298,85.57 141.086,85.927    140.907,86.161 140.729,86.407 140.628,86.519 140.539,86.641 140.439,86.753 140.35,86.876 140.238,86.976 140.137,87.088    139.926,87.311 139.858,87.355 139.825,87.378 139.803,87.412 139.691,87.523 139.457,87.747 139.233,87.903 139.021,88.059    138.798,88.193 138.586,88.327 138.463,88.372 138.352,88.428 138.128,88.528 137.682,88.684 137.213,88.773 136.744,88.818    136.5,88.807 136.433,88.796 136.376,88.796 136.265,88.796 136.019,88.762 135.896,88.74 135.785,88.729 135.773,88.729    135.773,88.751 135.606,89.153 135.517,89.354 135.472,89.455 135.438,89.566 135.249,89.968 135.07,90.37 134.858,90.749    134.646,91.129 134.423,91.498 134.2,91.866 134.066,92.033 133.943,92.212 133.809,92.379 133.687,92.558 133.418,92.893    133.151,93.228 132.86,93.54 132.57,93.864 132.258,94.165 131.945,94.478 131.744,94.634 131.688,94.668 131.644,94.712    131.555,94.801 131.175,95.137 130.784,95.449 130.405,95.773 130.003,96.074 129.612,96.387 129.5,96.454 129.445,96.487    129.4,96.532 129.199,96.688 128.798,96.99 128.373,97.269 128.162,97.403 127.96,97.548 127.112,98.095 126.889,98.218    126.677,98.352 126.253,98.62 125.806,98.865 125.583,98.988 125.371,99.122 124.333,99.691 123.664,100.384 121.945,102.962    120.271,105.585 118.641,108.209 117.079,110.866 115.549,113.534 114.076,116.225 112.648,118.937 111.274,121.672    110.46,123.291 109.679,124.92 107.502,122.297 106.409,121.025 105.315,119.785 104.199,118.546 103.093,117.33 101.967,116.113    100.839,114.918 99.69,113.724 98.54,112.551 98.038,112.15 97.792,111.926 97.569,111.714 97.334,111.479 97.122,111.246    96.709,110.743 95.348,109.426 93.986,108.142 92.602,106.869 91.219,105.619 89.455,104.079 87.691,102.571 86.676,101.734    85.66,100.942 84.623,100.171 84.098,99.792 83.584,99.435 83.049,99.066 82.524,98.72 81.453,98.039 80.37,97.38 79.287,96.766    78.171,96.164 77.602,95.873 77.044,95.605 75.905,95.069 74.767,94.567 73.606,94.087 72.434,93.651 71.251,93.239 70.648,93.038    70.057,92.859 68.762,91.899 68.104,91.441 67.456,91.006 66.139,90.66 64.845,90.358 63.528,90.068 62.222,89.812 61.999,89.767    61.787,89.745 61.563,89.722 61.352,89.722 60.905,89.733 60.47,89.789 58.003,90.146 56.92,91.408 56.396,92.044 55.904,92.703    55.414,93.35 54.945,94.021 54.487,94.69 54.052,95.382 53.929,96.677 53.84,98.128 53.795,99.602 53.795,101.075 53.862,102.56    53.962,104.045 54.119,105.552 54.32,107.059 54.576,108.577 55.012,110.978 55.492,113.389 55.994,115.789 56.529,118.2    57.077,120.589 57.668,122.989 58.282,125.378 58.594,126.573 58.929,127.778 59.13,128.526 59.353,129.285 59.588,130.033    59.845,130.781 60.09,131.507 60.369,132.233 60.648,132.947 60.95,133.673 61.25,134.365 61.575,135.068 61.898,135.761    62.245,136.452 62.59,137.123 62.958,137.804 63.327,138.462 63.729,139.132 61.921,140.226 60.146,141.364 58.94,142.123    57.757,142.916 55.425,144.546 54.264,145.372 53.126,146.221 50.882,147.962 49.699,148.878 48.538,149.826 47.378,150.775    46.239,151.757 45.101,152.739 43.985,153.745 42.88,154.761 41.797,155.811 41.429,156.189 41.295,156.291 39.286,157.619    37.31,159.003 36.038,160.408 35.949,160.488 35.871,160.577 35.714,160.755 35.402,161.113 34.777,161.827 32.232,164.651    31.897,165.466 31.73,165.868 31.573,166.281 31.228,167.085 30.893,167.888 30.536,168.67 30.178,169.463 29.989,169.843    29.81,170.233 29.442,171.015 29.397,171.282 29.375,171.417 29.364,171.483 29.364,171.562 29.319,171.829 29.274,172.108    29.208,172.365 29.151,172.634 29.107,172.756 29.074,172.89 29.006,173.158 29.553,173.37 30.111,173.57 30.669,173.761    31.25,173.928 31.875,174.084 32.511,174.23 33.159,174.353 33.806,174.464 34.453,174.542 35.111,174.62 35.781,174.676    36.462,174.709 37.132,174.709 37.813,174.698 38.505,174.664 39.208,174.62 39.899,174.542 40.603,174.464 41.317,174.364    42.042,174.241 47.255,173.247 48.65,173.281 51.976,173.325 52.802,173.325 53.215,173.325 53.639,173.337 55.313,173.337    56.965,173.314 57.791,173.292 58.204,173.281 58.628,173.281 61.954,173.191 65.257,173.034 68.584,172.856 71.887,172.611    73.54,172.478 74.365,172.398 75.202,172.331 76.843,172.153 78.495,171.975 81.798,171.595 85.08,171.148 86.731,170.914    88.384,170.668 90.013,170.4 91.665,170.122 94.946,169.54 96.576,169.229 96.978,169.14 97.39,169.062 98.216,168.904    101.498,168.234 103.294,169.697 105.114,171.159 106.934,172.6 108.786,174.018 110.638,175.413 112.514,176.797 114.389,178.147    116.297,179.499 116.811,178.996 117.369,178.539 117.972,178.103 118.619,177.69 119.311,177.3 119.668,177.11 120.047,176.941    120.829,176.597 121.655,176.295 123.272,175.747 124.925,175.256 126.588,174.82 128.284,174.441 129.937,174.084    130.751,173.917 131.555,173.761 132.335,173.605 133.106,173.448 134.624,173.158 135.528,173.147 136.42,173.17 137.302,173.225    137.727,173.259 138.162,173.314 138.575,173.358 139,173.426 139.401,173.492 139.814,173.581 140.204,173.661 140.606,173.761    140.997,173.861 141.398,173.983 142.146,174.219 142.895,174.497 143.251,174.643 143.62,174.81 144.323,175.156 145.004,175.524    145.673,175.927 146.321,176.361 146.957,176.842 147.124,176.306 147.303,175.781 147.649,174.731 147.961,173.661    148.106,173.125 148.263,172.6 148.531,171.506 148.553,171.359 148.586,171.227 148.653,170.959 148.788,170.423 149.021,169.329    149.234,168.234 151.89,168.023 154.546,167.776 155.863,167.632 157.191,167.498 159.848,167.185 162.482,166.828    165.138,166.438 167.772,166.013 169.089,165.79 170.417,165.567 171.958,165.266 172.337,165.176 172.527,165.132    172.728,165.099 173.509,164.942 174.268,164.763 174.648,164.674 174.837,164.629 175.038,164.596 175.797,164.405    176.567,164.227 177.315,164.026 178.074,163.836 178.442,163.725 178.822,163.624 179.581,163.424 181.076,162.988    182.572,162.53 183.297,162.285 184.034,162.039 184.392,161.905 184.57,161.838 184.76,161.782 185.496,161.537 186.947,161.013    188.398,160.466 189.827,159.885 191.255,159.293 192.662,158.678 194.068,158.043 196.49,156.858 196.49,156.759 196.054,156.67    195.641,156.569 195.229,156.446 194.827,156.313 194.425,156.156 194.045,155.988 193.666,155.811 193.298,155.62    192.572,155.173 192.215,154.928 191.881,154.672 191.534,154.392 191.21,154.103 190.574,153.477 189.804,153.398    189.079,153.287 188.375,153.131 187.695,152.953 187.036,152.718 186.4,152.45 186.088,152.293 185.797,152.137 185.228,151.79    184.938,151.59 184.67,151.39 184.146,150.965 183.643,150.496 183.398,150.239 183.175,149.993 182.717,149.437 182.304,148.844    181.914,148.219 181.545,147.561 180.686,147.493 179.849,147.404 179.034,147.281 178.241,147.125 177.459,146.924    176.712,146.689 175.976,146.422 175.273,146.131 174.57,145.785 173.899,145.406 173.241,144.992 172.616,144.557    171.992,144.066 171.399,143.553 170.831,143.006 170.284,142.425 170.116,142.225 169.982,142.023 169.86,141.811 169.77,141.609    169.681,141.375 169.625,141.152 169.581,140.907 169.57,140.672 169.045,140.549 168.542,140.427 167.571,140.137 167.092,139.97    166.634,139.813 166.176,139.634 165.741,139.456 165.294,139.243 164.871,139.042 164.457,138.818 164.067,138.596    163.665,138.351 163.286,138.104 162.56,137.591 161.857,137.011 161.522,136.709 161.209,136.408 160.596,135.761    160.306,135.414 160.038,135.068 159.759,134.699 159.502,134.332 159.022,133.55 158.788,133.137 158.576,132.734    158.364,132.311 158.173,131.887 158.084,131.686 158.018,131.496 157.895,131.116 157.794,130.726 157.75,130.525    157.728,130.335 157.672,129.922 157.649,129.52 157.638,129.308 157.649,129.107 157.683,128.705 157.928,126.283    158.219,123.872 158.554,121.46 158.933,119.06 159.346,116.659 159.815,114.282 160.316,111.904 160.875,109.538 160.696,107.651    160.495,105.798 160.228,104.134 159.915,102.482 159.558,100.83 159.178,99.189 158.732,97.537 158.241,95.907 157.705,94.277    157.147,92.647 156.678,91.419 156.433,90.816 156.198,90.236 155.708,89.075 155.45,88.505 155.205,87.958 154.948,87.445    154.669,86.965 154.368,86.507 154.066,86.072 153.731,85.637 153.386,85.246 153.018,84.877 152.638,84.531 152.225,84.185    151.79,83.884 151.333,83.583 150.875,83.326 150.383,83.069 149.881,82.846 149.356,82.633 148.821,82.466 148.251,82.299    147.66,82.153 147.057,82.031 146.443,81.93  "
   id="polygon9" />
	<polygon
   fill-rule="evenodd"
   clip-rule="evenodd"
   fill="#00FFFF"
   points="155.138,85.045 155.194,84.799 155.216,84.554    155.194,84.119 155.161,83.705 155.105,83.303 155.026,82.935 154.647,82.89 154.268,82.834 153.888,82.756 153.52,82.656    153.14,82.533 152.771,82.388 152.403,82.221 152.046,82.053 151.701,81.83 151.366,81.595 150.082,82.008 148.821,82.466    149.356,82.633 149.881,82.846 150.383,83.069 150.875,83.326 151.333,83.583 151.79,83.884 152.225,84.185 152.638,84.531    153.018,84.877 153.386,85.246 153.731,85.637 154.066,86.072 154.368,86.507 154.669,86.965 154.948,87.445 155.205,87.958    155.45,88.505 155.708,89.075 156.198,90.236 156.433,90.816 156.678,91.419 157.147,92.647 157.705,94.277 158.241,95.907    158.732,97.537 159.178,99.189 159.558,100.83 159.915,102.482 160.228,104.134 160.495,105.798 160.306,104.447 160.116,103.107    159.893,101.779 159.658,100.461 159.401,99.145 159.122,97.838 158.821,96.532 158.498,95.237 158.151,93.942 157.783,92.647    157.393,91.363 156.98,90.091 156.544,88.818 156.098,87.557 155.618,86.295 155.138,85.045  "
   id="polygon11" />
	<polygon
   fill-rule="evenodd"
   clip-rule="evenodd"
   fill="#0099FF"
   points="191.579,162.563 191.858,161.994 192.204,161.458    192.617,160.934 193.097,160.443 193.275,160.119 193.442,159.807 193.588,159.494 193.722,159.191 193.822,158.892    193.922,158.601 194,158.311 194.068,158.043 192.662,158.678 191.255,159.293 189.827,159.885 188.398,160.466 186.947,161.013    185.496,161.537 184.76,161.782 184.57,161.838 184.392,161.905 184.034,162.039 183.297,162.285 182.572,162.53 181.076,162.988    179.581,163.424 178.822,163.624 178.442,163.725 178.074,163.836 177.315,164.026 176.567,164.227 175.797,164.405    175.038,164.596 174.837,164.629 174.648,164.674 174.268,164.763 173.509,164.942 172.728,165.099 172.527,165.132    172.337,165.176 171.958,165.266 170.417,165.567 169.089,165.79 167.772,166.013 165.138,166.438 162.482,166.828    159.848,167.185 157.191,167.498 155.863,167.632 154.546,167.776 151.89,168.023 149.234,168.234 149.021,169.329    148.788,170.423 148.653,170.959 148.586,171.227 148.553,171.359 148.531,171.506 148.263,172.6 148.106,173.125 147.961,173.661    147.649,174.731 147.303,175.781 147.124,176.306 146.957,176.842 147.616,177.389 147.939,177.68 148.274,177.991    148.676,177.857 149.077,177.78 149.479,177.735 149.903,177.746 150.038,177.68 150.104,177.646 150.183,177.624 150.473,177.5    150.741,177.366 151.009,177.222 151.321,176.986 151.388,176.92 151.421,176.887 151.466,176.864 151.622,176.753    151.901,176.484 152.169,176.205 152.281,176.05 152.303,176.005 152.336,175.972 152.403,175.905 152.516,175.736 152.638,175.58    152.738,175.402 152.85,175.234 153.051,174.866 153.129,174.664 153.218,174.476 153.375,174.062 153.441,173.839    153.475,173.728 153.52,173.627 153.643,173.181 153.687,172.935 153.709,172.812 153.743,172.7 153.833,172.22 153.866,171.953    153.91,171.695 153.933,171.428 153.944,171.293 153.966,171.171 153.966,171.015 153.977,170.881 154.926,170.959 156.733,171.07    158.565,171.137 160.372,171.159 161.276,171.159 162.192,171.159 164,171.093 165.808,171.004 166.701,170.926 167.604,170.858    169.413,170.679 171.199,170.434 172.092,170.301 172.996,170.167 174.781,169.843 175.674,169.664 176.579,169.484    177.459,169.284 178.354,169.084 180.139,168.637 181.902,168.146 183.688,167.609 184.291,167.398 184.581,167.285    184.648,167.252 184.726,167.229 184.882,167.185 185.016,167.118 185.083,167.085 185.161,167.063 185.452,166.951    186.021,166.706 186.557,166.438 187.092,166.157 187.605,165.868 188.119,165.567 188.599,165.232 189.068,164.896    189.514,164.54 189.96,164.183 190.385,163.791 190.586,163.591 190.63,163.535 190.687,163.49 190.798,163.401 190.887,163.29    190.931,163.234 190.987,163.188 191.188,162.988 191.579,162.563  "
   id="polygon13" />
	<polygon
   fill-rule="evenodd"
   clip-rule="evenodd"
   fill="#3366FF"
   points="152.838,180.883 152.694,180.615 152.627,180.48    152.583,180.358 152.527,180.213 152.493,180.08 152.437,179.811 152.403,179.521 152.392,179.241 152.403,178.952    152.459,178.661 152.058,178.416 151.656,178.214 151.266,178.047 150.885,177.925 150.395,177.813 149.903,177.746    149.479,177.735 149.077,177.78 148.676,177.857 148.274,177.991 147.939,177.68 147.616,177.389 146.957,176.842 146.321,176.361    145.673,175.927 145.004,175.524 144.323,175.156 143.62,174.81 143.251,174.643 142.895,174.497 142.146,174.219 141.398,173.983    140.997,173.861 140.606,173.761 140.204,173.661 139.814,173.581 139.401,173.492 139,173.426 138.575,173.358 138.162,173.314    137.727,173.259 137.302,173.225 136.42,173.17 135.528,173.147 134.624,173.158 133.106,173.448 132.335,173.605 131.555,173.761    130.751,173.917 129.937,174.084 128.284,174.441 126.588,174.82 124.925,175.256 123.272,175.747 121.655,176.295    120.829,176.597 120.047,176.941 119.668,177.11 119.311,177.3 118.619,177.69 117.972,178.103 117.369,178.539 116.811,178.996    116.297,179.499 115.851,179.956 115.449,180.458 115.081,180.983 114.769,181.53 114.479,182.077 114.244,182.669    114.032,183.283 113.875,183.919 113.797,184.188 113.741,184.479 113.686,184.768 113.664,185.08 113.63,185.237 113.619,185.393    113.229,185.616 112.86,185.873 112.681,186.007 112.524,186.163 112.223,186.498 112.067,186.665 111.933,186.854    111.677,187.246 111.554,187.447 111.454,187.671 111.264,188.129 111.565,188.195 111.866,188.296 112.156,188.396    112.447,188.54 112.715,188.687 112.994,188.854 113.25,189.043 113.507,189.256 113.741,189.468 113.976,189.725 114.188,189.981    114.411,190.271 114.612,190.562 114.813,190.885 114.991,191.221 115.181,191.589 115.248,191.801 115.259,191.912    115.271,192.047 118.764,193.106 122.302,194.145 125.84,195.15 129.412,196.121 132.994,197.047 136.6,197.952 140.215,198.811    143.865,199.649 144.021,199.571 144.189,199.503 144.333,199.414 144.49,199.336 144.624,199.235 144.758,199.146    144.881,199.035 145.015,198.935 145.06,198.867 145.082,198.833 145.115,198.811 145.227,198.699 145.428,198.455 145.439,198.41    145.461,198.377 145.506,198.309 145.595,198.175 145.606,198.13 145.628,198.097 145.673,198.03 145.751,197.896 145.841,197.639    145.93,197.383 146.108,197.383 146.577,197.372 147.057,197.372 148.017,197.338 148.486,197.294 148.721,197.271    148.966,197.261 149.926,197.171 150.595,197.069 151.266,196.947 151.935,196.813 152.604,196.669 152.928,196.578 153.263,196.5    153.933,196.311 154.591,196.11 155.261,195.897 155.908,195.652 156.555,195.395 157.203,195.116 157.85,194.837 158.487,194.525    159.133,194.2 159.77,193.866 160.417,193.52 160.752,193.319 161.109,193.13 161.076,192.906 161.076,192.694 161.109,192.27    161.188,191.846 161.332,191.422 161.522,190.976 161.768,190.551 162.069,190.126 162.426,189.703 162.973,189.076    163.554,188.496 164.145,187.939 164.759,187.424 165.373,186.934 166.02,186.487 166.678,186.063 167.371,185.683    168.052,185.326 168.766,185.013 169.48,184.724 170.228,184.479 170.976,184.254 171.756,184.076 172.538,183.93 173.353,183.83    173.744,183.774 174.112,183.763 174.469,183.752 174.815,183.785 175.139,183.818 175.44,183.896 175.73,183.987 176.009,184.109    176.255,184.232 176.489,184.399 176.701,184.59 176.914,184.802 177.092,185.024 177.259,185.281 177.404,185.561    177.549,185.862 177.84,185.638 178.13,185.404 178.398,185.159 178.521,185.024 178.654,184.901 178.766,184.757 178.889,184.623    179.123,184.332 179.335,184.021 179.536,183.696 179.737,183.294 179.926,182.915 180.094,182.546 180.261,182.188    180.384,181.832 180.507,181.485 180.608,181.151 180.697,180.827 180.752,180.503 180.797,180.191 180.831,179.889    180.842,179.61 180.831,179.321 180.808,179.053 180.775,178.785 180.719,178.539 180.608,178.236 180.485,177.958 180.329,177.68    180.161,177.434 179.949,177.188 179.726,176.964 179.469,176.741 179.201,176.552 179.157,176.586 179.123,176.63    179.056,176.719 178.922,176.887 178.766,177.042 178.621,177.199 178.454,177.333 178.298,177.478 178.13,177.613    177.973,177.746 177.784,177.857 177.605,177.969 177.505,178.014 177.415,178.069 177.237,178.17 177.037,178.248    176.847,178.338 176.734,178.371 176.634,178.416 176.433,178.494 176.21,178.539 176.098,178.561 176.042,178.572    175.998,178.595 175.764,178.639 175.54,178.684 175.295,178.706 175.228,178.706 175.172,178.717 175.061,178.739 174.57,178.772    174.302,178.762 174.045,178.762 173.777,178.75 173.643,178.739 173.52,178.739 173.375,178.717 173.241,178.706 172.973,178.684    172.683,178.65 172.538,178.628 172.404,178.616 171.846,178.539 171.311,178.505 170.764,178.494 170.228,178.539    169.692,178.595 169.156,178.706 168.621,178.841 168.096,179.03 167.225,179.332 166.377,179.61 166.154,179.666 165.942,179.733    165.517,179.866 164.669,180.102 163.799,180.313 162.95,180.516 162.728,180.549 162.515,180.594 162.091,180.683 161.243,180.85    160.372,180.972 159.513,181.085 158.643,181.162 158.419,181.174 158.207,181.196 157.783,181.24 156.912,181.285    156.042,181.318 155.171,181.33 154.948,181.318 154.736,181.318 154.312,181.318 153.933,181.274 153.754,181.24 153.576,181.196    153.196,181.063 152.838,180.883  "
   id="polygon15" />
	<polygon
   fill-rule="evenodd"
   clip-rule="evenodd"
   fill="#00FFFF"
   points="150.885,177.925 150.952,177.567 150.975,177.389    150.986,177.3 151.009,177.222 150.741,177.366 150.473,177.5 150.183,177.624 150.104,177.646 150.038,177.68 149.903,177.746    150.395,177.813 150.885,177.925  "
   id="polygon17" />
	<polygon
   fill-rule="evenodd"
   clip-rule="evenodd"
   fill="#00FFFF"
   points="153.977,170.881 153.966,171.015 153.966,171.171    154.926,170.959 153.977,170.881  "
   id="polygon19" />
	<polygon
   fill-rule="evenodd"
   clip-rule="evenodd"
   fill="#00FFFF"
   points="145.93,197.383 145.841,197.639 145.751,197.896    146.265,197.828 146.79,197.762 147.838,197.605 148.352,197.505 148.408,197.483 148.475,197.472 148.609,197.449    148.876,197.405 149.926,197.171 148.966,197.261 148.721,197.271 148.486,197.294 148.017,197.338 147.057,197.372    146.577,197.372 146.108,197.383 145.93,197.383  "
   id="polygon21" />
	<polygon
   fill-rule="evenodd"
   clip-rule="evenodd"
   fill="#FFFFB3"
   points="198.611,182.379 198.554,181.732 198.488,181.107    198.387,180.48 198.265,179.866 198.097,179.241 197.918,178.628 197.707,178.025 197.472,177.434 196.68,177.244 195.931,177.042    195.184,176.809 194.47,176.574 193.766,176.295 193.085,176.017 192.416,175.703 191.78,175.38 191.144,175.022 190.53,174.653    189.927,174.264 189.358,173.851 188.788,173.414 188.264,172.956 187.739,172.478 187.249,171.986 186.757,172.198    186.299,172.455 185.842,172.712 185.418,173.001 184.994,173.292 184.603,173.616 184.212,173.95 183.867,174.319 183.51,174.687    183.186,175.078 182.862,175.491 182.572,175.927 182.282,176.361 182.025,176.842 181.779,177.322 181.568,177.836    181.132,178.17 180.719,178.539 180.775,178.785 180.808,179.053 180.831,179.321 180.842,179.61 180.831,179.889 180.797,180.191    180.752,180.503 180.697,180.827 180.608,181.151 180.507,181.485 180.384,181.832 180.261,182.188 180.094,182.546    179.926,182.915 179.737,183.294 179.536,183.696 179.335,184.021 179.123,184.332 178.889,184.623 178.766,184.757    178.654,184.901 178.521,185.024 178.398,185.159 178.13,185.404 177.84,185.638 177.549,185.862 177.706,186.32 177.761,186.543    177.784,186.788 177.683,187.012 177.65,187.057 177.627,187.112 177.583,187.224 177.605,187.346 177.65,187.481 177.761,187.939    177.896,188.396 178.029,188.831 178.186,189.268 178.342,189.681 178.521,190.081 178.71,190.462 178.922,190.84 179.123,191.187    179.347,191.533 179.581,191.856 179.837,192.181 180.094,192.471 180.374,192.761 180.652,193.028 180.954,193.297    181.243,193.531 181.568,193.755 181.891,193.967 182.237,194.167 182.583,194.346 182.951,194.525 183.32,194.681    183.721,194.825 184.112,194.949 184.525,195.061 184.938,195.161 185.385,195.25 185.82,195.317 186.288,195.373 186.757,195.417    187.249,195.452 188.074,195.92 188.9,196.345 189.726,196.702 190.139,196.869 190.563,197.025 191.389,197.271 191.813,197.383    192.237,197.483 192.639,197.561 193.063,197.628 193.912,197.739 193.9,197.483 193.912,197.238 193.945,196.97 194,196.713    194.257,195.764 194.592,194.848 194.972,193.944 195.43,193.084 195.931,192.226 196.5,191.389 197.115,190.573 197.807,189.803    197.941,189.623 198.007,189.534 198.042,189.49 198.085,189.456 198.354,189.109 198.611,188.754 198.722,188.563    198.844,188.385 198.946,188.185 199.057,187.995 199.147,187.793 199.191,187.692 199.247,187.604 199.425,187.201    199.459,187.09 199.503,186.99 199.592,186.788 199.38,186.253 199.213,185.718 199.045,185.17 198.923,184.635 198.8,184.076    198.722,183.518 198.644,182.948 198.611,182.379  "
   id="polygon23" />
	<polygon
   fill-rule="evenodd"
   clip-rule="evenodd"
   fill="#00FFFF"
   points="93.663,106.802 93.361,106.613 93.071,106.445    92.469,106.133 91.844,105.854 91.219,105.619 92.602,106.869 93.986,108.142 95.348,109.426 96.709,110.743 96.397,110.33    96.163,109.984 95.984,109.627 95.839,109.248 95.783,109.046 95.75,108.856 94.689,107.83 93.663,106.802  "
   id="polygon25" />
	<polygon
   fill-rule="evenodd"
   clip-rule="evenodd"
   fill="#00FFFF"
   points="100.504,113.634 99.98,113.4 99.478,113.154    98.998,112.864 98.54,112.551 99.69,113.724 100.839,114.918 101.967,116.113 103.093,117.33 104.199,118.546 105.315,119.785    106.409,121.025 107.502,122.297 109.031,122.118 108.987,121.806 108.953,121.516 108.953,121.493 108.708,121.416    108.585,121.371 108.474,121.326 108.228,121.203 108.004,121.058 107.759,120.868 107.536,120.667 107.291,120.433    107.067,120.176 107.067,119.685 107.067,119.194 106.866,118.814 106.476,118.58 106.129,118.334 105.784,118.066    105.471,117.787 105.203,117.731 104.935,117.698 104.344,117.195 103.775,116.704 102.647,115.711 102.089,115.186    101.554,114.673 101.018,114.148 100.504,113.634  "
   id="polygon27" />
	<polygon
   fill-rule="evenodd"
   clip-rule="evenodd"
   fill="#00FFFF"
   points="123.664,100.384 122.917,101.176 121.855,102.393    120.84,103.654 119.847,104.916 118.876,106.211 117.927,107.506 117.012,108.834 116.119,110.174 115.259,111.547 114.311,113.3    113.329,115.075 112.837,115.901 112.324,116.727 112.257,117.241 112.212,117.497 112.179,117.765 112.123,118.01    112.101,118.066 112.09,118.134 112.067,118.267 111.944,118.781 111.732,119.461 111.498,120.176 111.297,120.388    111.119,120.589 110.917,120.768 110.739,120.935 110.538,121.081 110.36,121.203 110.159,121.304 109.98,121.393 109.824,121.706    109.702,122.041 110.906,121.929 111.019,121.828 111.141,121.728 111.274,121.672 112.648,118.937 114.076,116.225    115.549,113.534 117.079,110.866 118.641,108.209 120.271,105.585 121.945,102.962 123.664,100.384  "
   id="polygon29" />
	<polygon
   fill-rule="evenodd"
   clip-rule="evenodd"
   fill="#0099FF"
   points="109.702,122.041 109.031,122.118 107.502,122.297    109.679,124.92 110.46,123.291 111.274,121.672 111.141,121.728 111.019,121.828 110.906,121.929 109.702,122.041  "
   id="polygon31" />
	<polygon
   fill-rule="evenodd"
   clip-rule="evenodd"
   fill="#0099FF"
   points="53.929,96.677 53.695,97.325 53.472,98.006    52.891,99.948 52.389,101.891 51.931,103.833 51.552,105.787 51.217,107.729 50.949,109.683 50.737,111.636 50.604,113.601    50.503,115.544 50.48,117.508 50.514,119.473 50.615,121.438 50.759,123.402 50.972,125.367 51.24,127.332 51.585,129.308    51.764,130.313 51.976,131.34 52.277,132.635 52.657,133.137 53.025,133.662 53.148,133.873 53.259,134.119 53.159,135.034    53.137,135.481 53.148,135.938 53.159,136.374 53.192,136.821 53.237,137.256 53.315,137.703 53.505,138.038 53.673,138.384    53.817,138.741 53.951,139.099 54.052,139.456 54.13,139.824 54.186,140.192 54.242,140.572 54.655,141.342 54.867,141.654    55.101,141.922 55.224,142.034 55.358,142.135 55.659,142.291 55.96,142.381 56.128,142.402 56.307,142.414 56.474,142.402    56.664,142.392 57.054,142.324 57.501,142.201 57.969,142.068 59.052,141.722 60.146,141.364 61.921,140.226 63.729,139.132    63.327,138.462 62.958,137.804 62.59,137.123 62.245,136.452 61.898,135.761 61.575,135.068 61.25,134.365 60.95,133.673    60.648,132.947 60.369,132.233 60.09,131.507 59.845,130.781 59.588,130.033 59.353,129.285 59.13,128.526 58.929,127.778    58.594,126.573 58.282,125.378 57.668,122.989 57.077,120.589 56.529,118.2 55.994,115.789 55.492,113.389 55.012,110.978    54.576,108.577 54.32,107.059 54.119,105.552 53.962,104.045 53.862,102.56 53.795,101.075 53.795,99.602 53.84,98.128    53.929,96.677  "
   id="polygon33" />
	<polygon
   fill-rule="evenodd"
   clip-rule="evenodd"
   fill="#00FFFF"
   points="60.146,141.364 59.052,141.722 57.969,142.068    56.172,143.52 54.398,144.992 50.882,147.962 53.126,146.221 54.264,145.372 55.425,144.546 57.757,142.916 58.94,142.123    60.146,141.364  "
   id="polygon35" />
	<polygon
   fill-rule="evenodd"
   clip-rule="evenodd"
   fill="#00FFFF"
   points="41.429,156.189 41.797,155.811 41.295,156.291    41.429,156.189  "
   id="polygon37" />
	<polygon
   fill-rule="evenodd"
   clip-rule="evenodd"
   fill="#0099FF"
   points="31.25,173.928 31.641,174.408 31.875,174.664    32.131,174.934 32.344,175.122 32.578,175.312 32.812,175.469 33.058,175.614 33.303,175.714 33.56,175.803 33.828,175.859    34.107,175.916 36.428,176.116 37.589,176.194 38.761,176.283 39.911,176.351 41.072,176.417 43.393,176.518 45.692,176.574    46.262,176.574 46.842,176.586 48.003,176.597 49.141,176.586 49.275,176.574 49.42,176.574 49.71,176.574 50.291,176.574    52.59,176.528 54.934,176.417 56.105,176.351 57.289,176.283 59.632,176.105 60.804,175.994 61.988,175.894 64.309,175.636    65.47,175.491 66.05,175.413 66.642,175.347 68.963,175.011 70.124,174.82 71.295,174.643 71.665,175.045 71.854,175.234    72.066,175.425 72.356,175.658 72.669,175.894 72.981,176.094 73.327,176.283 73.673,176.45 74.042,176.597 74.41,176.719    74.801,176.842 75.336,176.964 75.894,177.077 76.43,177.177 76.988,177.267 77.523,177.322 77.792,177.344 77.925,177.355    78.071,177.378 78.606,177.411 79.164,177.434 79.287,177.422 79.421,177.422 79.689,177.422 80.225,177.411 80.75,177.389    81.285,177.366 81.531,177.333 81.788,177.311 82.3,177.267 82.803,177.199 83.316,177.133 83.796,177.042 84.288,176.953    84.767,176.842 85.248,176.73 85.705,176.597 86.174,176.462 86.631,176.306 86.854,176.228 87.089,176.161 87.524,175.982    87.959,175.803 88.384,175.603 88.484,175.547 88.595,175.503 88.819,175.413 89.231,175.189 89.433,175.078 89.533,175.022    89.645,174.978 90.046,174.742 90.248,174.62 90.459,174.509 90.838,174.241 91.029,174.106 91.229,173.983 91.609,173.705    91.988,173.426 92.345,173.125 92.524,172.968 92.613,172.89 92.714,172.823 93.071,172.5 93.25,172.331 93.439,172.176    93.596,172.176 93.674,172.176 93.763,172.187 94.076,172.198 94.321,172.176 94.566,172.153 94.801,172.108 94.913,172.086    94.936,172.075 94.969,172.075 95.036,172.075 95.85,172.812 96.654,173.581 97.089,173.995 97.915,174.765 98.764,175.514    99.611,176.228 100.482,176.931 101.353,177.591 102.246,178.236 103.139,178.852 104.054,179.455 104.969,180.002    105.895,180.549 106.833,181.051 107.792,181.541 108.752,181.988 109.724,182.424 110.705,182.815 111.71,183.205    112.771,183.573 113.875,183.919 114.032,183.283 114.244,182.669 114.479,182.077 114.769,181.53 115.081,180.983    115.449,180.458 115.851,179.956 116.297,179.499 114.389,178.147 112.514,176.797 110.638,175.413 108.786,174.018 106.934,172.6    105.114,171.159 103.294,169.697 101.498,168.234 98.216,168.904 97.39,169.062 96.978,169.14 96.576,169.229 94.946,169.54    91.665,170.122 90.013,170.4 88.384,170.668 86.731,170.914 85.08,171.148 81.798,171.595 78.495,171.975 76.843,172.153    75.202,172.331 74.365,172.398 73.54,172.478 71.887,172.611 68.584,172.856 65.257,173.034 61.954,173.191 58.628,173.281    58.204,173.281 57.791,173.292 56.965,173.314 55.313,173.337 53.639,173.337 53.215,173.325 52.802,173.325 51.976,173.325    48.65,173.281 47.255,173.247 42.042,174.241 41.317,174.364 40.603,174.464 39.899,174.542 39.208,174.62 38.505,174.664    37.813,174.698 37.132,174.709 36.462,174.709 35.781,174.676 35.111,174.62 34.453,174.542 33.806,174.464 33.159,174.353    32.511,174.23 31.875,174.084 31.25,173.928  "
   id="polygon39" />
	<polygon
   fill-rule="evenodd"
   clip-rule="evenodd"
   fill="#00FFFF"
   points="52.59,176.528 52.958,176.686 53.349,176.797    53.762,176.842 54.219,176.842 55.325,176.774 56.44,176.719 58.672,176.586 60.905,176.439 63.137,176.272 65.37,176.083    67.602,175.883 69.834,175.658 72.066,175.425 71.854,175.234 71.665,175.045 71.295,174.643 70.124,174.82 68.963,175.011    66.642,175.347 66.05,175.413 65.47,175.491 64.309,175.636 61.988,175.894 60.804,175.994 59.632,176.105 57.289,176.283    56.105,176.351 54.934,176.417 52.59,176.528  "
   id="polygon41" />
	<polygon
   fill-rule="evenodd"
   clip-rule="evenodd"
   fill="#00FFFF"
   points="94.076,172.198 95.572,173.09 97.089,173.995    96.654,173.581 95.85,172.812 95.036,172.075 94.969,172.075 94.936,172.075 94.913,172.086 94.801,172.108 94.566,172.153    94.321,172.176 94.076,172.198  "
   id="polygon43" />
	<polygon
   fill-rule="evenodd"
   clip-rule="evenodd"
   fill="#00FFFF"
   points="113.875,183.919 112.771,183.573 111.71,183.205    112.179,183.707 112.67,184.198 113.161,184.646 113.664,185.08 113.686,184.768 113.741,184.479 113.797,184.188 113.875,183.919     "
   id="polygon45" />
	<polygon
   fill-rule="evenodd"
   clip-rule="evenodd"
   fill="#FFFFB3"
   points="209.816,187.401 209.616,188.028 209.66,187.882    209.715,187.748 209.816,187.481 209.906,187.201 210.006,186.934 210.173,186.376 210.241,186.085 210.241,186.04    210.251,186.007 210.274,185.94 210.319,185.807 210.363,185.504 210.418,185.215 210.464,184.913 210.52,184.623 210.586,184.021    210.609,183.707 210.62,183.552 210.642,183.405 210.508,184.388 210.33,185.382 210.218,185.873 210.095,186.387 209.961,186.89    209.816,187.401  "
   id="polygon47" />
	<path
   fill-rule="evenodd"
   clip-rule="evenodd"
   d="M151.577,80.836l-1.406,0.346l-1.373,0.424l-1.351,0.48l-1.329,0.547   l-1.317,0.603l-1.283,0.681l-1.272,0.726l-1.239,0.815l-1.507,1.016l-1.462,1.038l-0.737,0.525l-0.714,0.547l-1.417,1.104   l-1.407,1.128l-1.373,1.149l-1.351,1.173l-1.328,1.217l-1.306,1.216l-1.283,1.262l-1.261,1.283l-1.228,1.307l-1.217,1.328   l-1.172,1.362l-0.591,0.681l-0.57,0.704l-1.127,1.418l-2.746,3.416l-1.384,1.697l-1.396,1.719l-0.58,0.703l-0.525,0.726   l-0.502,0.726l-0.458,0.748l-0.436,0.737l-0.379,0.759l-0.357,0.77l-0.313,0.782l0.101-0.658l-1.373,1.786l-1.351,1.82l-0.48-0.703   l-0.491-0.692l-1.005-1.351l-0.524-0.67l-0.536-0.647l-1.094-1.261l-1.161-1.24l-1.184-1.194l-0.625-0.592l-0.625-0.569   l-0.636-0.558l-0.647-0.547l-3.75-3.103l-3.761-3.07l-3.772-3.048l-3.784-3.002l-0.502-0.391l-0.491-0.369L82.68,97.28   l-0.502-0.334l-0.524-0.346l-0.524-0.313l-0.536-0.313l-0.536-0.29l-1.071-0.569l-1.061-0.536l-1.071-0.525l-1.071-0.502   l-1.094-0.502l-1.082-0.458l-1.094-0.458l-1.093-0.413l-1.117-0.424l-1.104-0.391l-1.127-0.38l-1.116-0.346l-1.139-0.346   l-1.139-0.313l-1.149-0.302l-1.139-0.279h-0.211l-0.201,0.011l-0.402,0.022h-0.413l-0.402,0.011h-0.547l-0.502,0.033l-0.502,0.056   l-0.458,0.101l-0.458,0.112l-0.435,0.156l-0.413,0.179l-0.391,0.212l-0.391,0.234l-0.346,0.268l-0.346,0.29L55.67,90.95   l-0.301,0.346l-0.268,0.391L54.844,92.1l-0.224,0.447l-0.089,0.368l-0.1,0.379l-0.067,0.179l-0.034,0.089l-0.022,0.1l-0.146,0.38   l-0.681,1.641l-0.614,1.663l-0.57,1.686l-0.501,1.73l-0.458,1.73l-0.402,1.752l-0.346,1.775l-0.291,1.809l-0.234,1.686   l-0.189,1.707l-0.167,1.708l-0.123,1.719l-0.101,1.719l-0.044,1.731l-0.022,1.73l0.022,1.741l0.056,1.853l0.146,1.853l0.211,1.832   l0.124,0.915l0.167,0.915l0.089,1.418l0.168,1.451l0.09,0.915l0.066,0.916l0.022,0.915v0.938l-0.011,0.614l0.011,0.614l0.034,0.591   l0.056,0.604l0.078,0.58l0.1,0.58l0.124,0.559l0.145,0.569l0.012,0.67l0.056,0.682l0.078,0.67l0.123,0.691l0.146,0.67l0.178,0.67   l0.212,0.67l0.257,0.67l0.078,0.101l-0.368,0.268l-0.38,0.257l-0.513,0.391l-0.491,0.401l-0.145,0.157l-0.168,0.155l-0.156,0.157   h-0.101l-0.669,0.558l-2.087,1.753l-2.054,1.797l-2.02,1.809l-1.987,1.842l-1.194,1.106l-1.172,1.126l-1.161,1.128l-1.139,1.151   l-1.138,1.148l-1.116,1.172l-1.117,1.185l-1.083,1.205l-0.458,0.514l-0.413,0.513l-0.391,0.514l-0.335,0.536l-0.324,0.514   l-0.268,0.535l-0.246,0.536l-0.201,0.536l-0.446,0.614l-0.38,0.636l-0.491,0.838l-0.424,0.882l-0.089,0.223l-0.044,0.234   l-0.011,0.234l0.033,0.258l0.056,0.245l0.369,0.29l0.391,0.29l0.391,0.269l0.413,0.268l0.413,0.246l0.435,0.256l0.435,0.234   l0.458,0.235l0.592,0.256l0.603,0.258l0.603,0.223l0.614,0.212l0.614,0.19l0.625,0.167l0.625,0.145l0.647,0.134l1.004,0.168   l0.089,0.045l0.111,0.056l0.112,0.045l0.134,0.044l0.123,0.022l0.145,0.033l0.145,0.022l0.167,0.033l0.893,0.056l0.904,0.058   l0.916,0.011l0.915,0.012l0.346,0.244l0.189,0.101l0.201,0.089l0.201,0.068l0.212,0.056l0.223,0.045l0.234,0.033l1.73,0.101   l1.741,0.089l3.482,0.156l1.742,0.056l1.741,0.044l3.504,0.067l2.165,0.067l1.083,0.022l1.094,0.033l2.165,0.012l2.188,0.011   l2.165-0.044l2.187-0.056l2.166-0.091l2.188-0.101l3.136-0.021l3.103-0.045l3.125-0.067l0.379-0.021l0.089-0.012h0.101h0.201   l0.781-0.021l1.563-0.045l3.125-0.123l0.759-0.021l0.759,0.011l0.368,0.011l0.379,0.034l0.759,0.077l0.725,0.101l0.737,0.145   l0.357,0.078l0.368,0.102l0.726,0.212l0.993,0.916l1.015,0.903l1.038,0.883l1.083,0.858l1.082,0.838l1.105,0.826l1.127,0.805   l1.161,0.792l0.368,0.233l0.391,0.213l0.39,0.189l0.402,0.179l0.401,0.146l0.413,0.134l0.424,0.101l0.435,0.1l0.313,0.056   l0.324,0.078l0.625,0.202l0.301,0.111l0.313,0.134l0.291,0.134l0.301,0.157l0.201,0.089l0.211,0.089l0.19,0.067l0.201,0.056   l0.178,0.033l0.201,0.022l0.179,0.011h0.189l-0.145,0.603l-0.09,0.625l-0.056,0.627v0.647l0.223,0.233l0.245,0.234l0.246,0.213   l0.257,0.2l0.257,0.18l0.268,0.167l0.268,0.145l0.29,0.145l0.279,0.111l0.291,0.102l0.3,0.09l0.313,0.077l0.302,0.056l0.323,0.045   l0.324,0.022l0.335,0.011l0.079,0.212l0.1,0.213l0.111,0.189l0.146,0.19l0.145,0.167l0.167,0.156l0.178,0.145l0.201,0.146   l0.804,0.501l0.836,0.491l0.849,0.447l0.871,0.436l0.871,0.39l0.903,0.369l0.916,0.335l0.938,0.323l1.329,0.392l1.339,0.38   l1.339,0.334l1.351,0.324l2.221,0.691l1.139,0.313l1.161,0.302l1.161,0.258l1.16,0.233l1.161,0.189l1.161,0.169l1.161,0.134   l1.183,0.111l1.16,0.056l1.172,0.044h1.172l1.183-0.011l1.171-0.067l1.184-0.078l1.183-0.122l1.194-0.145l0.211-0.046l0.224-0.045   l0.201-0.066l0.044-0.022l0.022-0.011h0.033l0.112-0.022l0.189-0.089l0.089-0.045l0.044-0.022l0.022-0.011h0.033l0.012-0.022   l0.022-0.012l0.044-0.021l0.089-0.045l0.179-0.102l0.167-0.011l0.179-0.034l0.179-0.056l0.189-0.066l0.39-0.2l0.391-0.202   l0.379-0.212l0.391-0.2l0.882-0.514l0.915-0.469l0.927-0.447l0.959-0.412l0.949-0.391l0.982-0.347l0.993-0.323l1.026-0.291   l2.054-0.547l2.053-0.47l2.065-0.411l2.076-0.347l2.076-0.301l2.076-0.235l2.087-0.179l2.099-0.1l0.033,0.089l-0.234,0.245   l-0.246,0.257l-0.212,0.268l-0.079,0.101l-0.033,0.122l-0.011,0.269l0.033,0.258l0.057,0.234l0.044,0.111l0.067,0.122l0.134,0.202   l0.079,0.089l0.1,0.101l0.201,0.178l0.256,0.167l0.749,0.402l0.77,0.369l0.782,0.335l0.803,0.313l0.804,0.267l0.827,0.235   l0.836,0.2l0.871,0.18l0.916,0.134l0.915,0.101l0.446,0.033l0.223,0.011l0.235,0.022l0.446,0.012h0.223h0.111l0.123,0.011   l0.1-0.011h0.112h0.223l0.446-0.012l0.212-0.022l0.223-0.011l0.447-0.033l0.424-0.056l0.101-0.022l0.111-0.011l0.224-0.022   l0.424-0.067l0.435-0.066l0.201-0.058l0.212-0.044l0.424-0.101l0.413-0.111l0.424-0.111l0.402-0.135l0.413-0.134l0.402-0.156   l0.412-0.155l0.391-0.179l0.401-0.18l0.392-0.2l0.401-0.2l0.379-0.225l0.19-0.111l0.201-0.1l0.781-0.47l0.167-0.133l0.067-0.067   l0.011-0.022l0.022-0.011l0.045-0.023l0.134-0.146l0.022-0.044l0.012-0.022l0.021-0.011l0.067-0.067l0.089-0.167l0.033-0.089   l0.045-0.079l0.057-0.179l0.056-0.178l0.033-0.291l0.022-0.256l0.011-0.258v-0.223l-0.033-0.234l-0.033-0.201l-0.056-0.201   l-0.068-0.18l-0.089-0.178l-0.1-0.156l-0.123-0.155l-0.134-0.124l-0.157-0.134l-0.167-0.101l-0.189-0.1l-0.189-0.067l0.189-0.224   l0.201-0.234l0.089-0.134l0.044-0.066l0.022-0.035l0.033-0.021l0.201-0.268l0.168-0.29l0.156-0.269l0.146-0.289l0.134-0.28   l0.111-0.301l0.111-0.291l0.09-0.301l0.089-0.29l0.056-0.313l0.022-0.157v-0.044l0.011-0.034l0.023-0.066l0.066-0.625l0.011-0.336   v-0.312l-0.011-0.335l-0.022-0.313l0.145-0.246l0.023-0.066l0.011-0.034l0.022-0.022l0.067-0.111l0.111-0.246l0.044-0.122   l0.056-0.111l0.067-0.257l0.056-0.246l0.034-0.245l0.033-0.246l-0.012-0.268l-0.021-0.246l-0.034-0.268l-0.056-0.245l-0.078-0.269   l-0.101-0.269l-0.122-0.268l-0.123-0.269l-0.347-0.601l-0.346-0.57l-0.368-0.57l-0.391-0.534l-0.413-0.536l-0.436-0.514   l-0.457-0.503l-0.469-0.469l0.078-0.245l0.021-0.258l0.012-0.245l-0.012-0.066v-0.057l-0.021-0.112l-0.291-0.278l-0.278-0.244   l-0.291-0.247l-0.278-0.211l-0.58-0.414l-0.58-0.347l-0.313-0.167l-0.302-0.134l-0.313-0.134l-0.301-0.1l-0.625-0.18l-0.323-0.078   l-0.313-0.044l-0.335-0.056l-0.324-0.022l-0.334-0.022l-0.324,0.011h-0.346l-0.335,0.034l-0.346,0.033l-0.335,0.066l-0.356,0.056   l-0.347,0.089l-0.357,0.09l-0.346,0.123l-0.368,0.123l-0.358,0.145l-0.368,0.156l-0.357,0.18l0.089-0.447l0.089-0.458v-0.245   l-0.022-0.224l-0.089-0.134l-0.078-0.101l-0.167-0.146l-0.168-0.101l-0.179-0.101l-0.167-0.056l-0.189-0.056l-0.19-0.011h-0.201   l-0.201,0.033l-0.011,0.022h-0.011v0.011v0.022l-0.904,0.2l-0.86,0.27l-0.848,0.29l-0.814,0.356l-0.815,0.381l-0.781,0.445   l-0.77,0.491l-0.737,0.536l-0.101,0.112l-0.089,0.123l-0.111,0.1l-0.056,0.045l-0.044,0.056l-0.257,0.233l-0.235,0.247   l-0.413,0.524l-0.636-0.122l-0.324-0.045l-0.313-0.022l-0.681-0.033h-0.347l-0.334,0.022l-1.25,0.1l-1.227,0.123l-1.228,0.145   l-1.217,0.18l-1.228,0.189l-1.217,0.212l-1.206,0.233l-1.206,0.28l-1.206,0.279l-1.205,0.312l-1.194,0.325l-1.183,0.367   l-1.184,0.369l-1.183,0.413l-1.183,0.412l-1.161,0.458l-0.212,0.066l-0.201,0.078l-0.401,0.124l-0.402,0.101l-0.402,0.1L154,181.91   l0.178-0.491l0.167-0.491l0.146-0.492l0.134-0.479l0.033-0.134l0.056-0.123l-0.156-0.636l-0.089-0.302l-0.09-0.279l-0.056-0.122   l-0.034-0.056l-0.022-0.035l-0.067-0.077l-0.067-0.034l-1.06-0.412l0.246-0.603l0.111-0.302l0.123-0.29l0.089-0.313l0.044-0.156   l0.022-0.078l0.033-0.066l0.09-0.313l0.089-0.301h0.547l0.568-0.046l0.581-0.111l0.603-0.156l2.544-0.759l2.556-0.692l2.846-0.604   l2.858-0.613l2.857-0.637l2.856-0.647l0.604-0.155l0.145-0.045l0.156-0.033l0.313-0.066l0.604-0.169l0.613-0.156l0.592-0.178   l0.603-0.168l1.206-0.346l1.183-0.392l1.183-0.401l1.161-0.435l1.161-0.436l1.139-0.48l1.138-0.48l1.117-0.524l0.557-0.268   l0.279-0.134l0.29-0.124l0.547-0.289l0.558-0.28l0.546-0.289l0.558-0.278l1.083-0.604l0.537-0.312l0.267-0.156l0.134-0.079   l0.145-0.067l0.268-0.178l0.268-0.167l0.246-0.19l0.245-0.179l0.224-0.2l0.212-0.18l0.201-0.2l0.089-0.101l0.1-0.089l0.078-0.113   l0.09-0.1l0.156-0.201l0.291-0.424l0.123-0.223l0.111-0.225l0.045-0.122l0.056-0.111l0.089-0.223l1.63-1.33l0.223-0.2l0.213-0.2   l0.178-0.202l0.156-0.2l0.111-0.201l0.102-0.201l0.066-0.201l0.045-0.178l-0.012-0.202l-0.021-0.2l-0.056-0.202l-0.067-0.2   l-0.123-0.2l-0.135-0.2l-0.167-0.202l-0.033-0.033l-0.022-0.022l-0.044-0.045l-0.09-0.089l-0.513-0.458l-0.514-0.436l-0.536-0.423   l-0.536-0.392l-0.558-0.392l-0.569-0.347l-0.581-0.345l-0.591-0.301l-1.44-0.749l-1.418-0.747l-2.824-1.519l-2.801-1.563   l-2.757-1.607l-2.076-1.216l-2.064-1.184l-2.087-1.184l-2.076-1.149l-2.099-1.15l-2.099-1.116l-2.12-1.105l-2.109-1.071   l-1.384-0.692l-1.384-0.659l-1.395-0.636l-1.396-0.614l0.291-0.748l0.279-0.736l0.268-0.748l0.256-0.736l0.112-0.392l0.123-0.379   l0.223-0.76l0.045-0.2l0.022-0.101l0.034-0.09l0.112-0.379l0.212-0.76l0.201-0.859l0.189-0.849l0.179-0.871l0.167-0.848   l0.145-0.871l0.067-0.435l0.078-0.425l0.122-0.871l0.022-0.224l0.011-0.111l0.022-0.1l0.066-0.425l0.09-0.882l0.089-0.871   l0.133-1.764l0.034-0.893l0.011-0.447l0.022-0.436l0.022-0.893v-0.446v-0.224v-0.111l0.011-0.101l-0.022-1.228l-0.033-1.228   l-0.045-1.216l-0.056-1.206l-0.178-2.423l-0.112-1.206l-0.123-1.183l-0.313-2.401l-0.179-1.183l-0.19-1.183l-0.212-1.183   l-0.223-1.184l-0.245-1.183l-0.257-1.161l-0.804-3.483l-0.848-3.483l-0.201-0.703l-0.212-0.658l-0.245-0.637l-0.257-0.614   l-0.302-0.592l-0.323-0.569l-0.179-0.279l-0.178-0.257l-0.369-0.502l-0.212-0.257l-0.211-0.234l-0.435-0.458l-0.469-0.435   l-0.246-0.212l-0.234-0.19l-0.525-0.391l-0.279-0.189l-0.268-0.167l-0.581-0.324L151.577,80.836L151.577,80.836z M155.629,89.767   l0.458,1.764l0.435,1.775l0.401,1.775l0.369,1.798l0.324,1.786l0.29,1.808l0.257,1.808l0.223,1.82l0.123,1.183l0.112,1.194l0.2,2.4   l0.134,2.401l0.056,1.205l0.044,1.228l0.011,1.072v1.072l-0.022,1.06l-0.034,1.072l-0.056,1.049l-0.044,0.524l-0.033,0.536   l-0.101,1.05l-0.1,1.05l-0.145,1.026l-0.146,1.05l-0.167,1.026l-0.101,0.514l-0.089,0.525l-0.212,1.027l-0.234,1.027l-0.134,0.502   l-0.123,0.514l-0.257,1.027l-0.369,0.681l-0.345,0.715l-0.335,0.715l-0.301,0.747l-0.068,0.135l-0.044,0.145l-0.067,0.29   l-0.758-0.313l-0.749-0.29l-0.77-0.29l-0.759-0.269l-0.313,0.033l-0.96-0.424l-0.96-0.379l-0.982-0.357l-0.982-0.313l-0.1,0.011   l-0.079,0.022l-0.156-0.156l-1.172-0.369l-1.172-0.334l-1.171-0.347l-1.161-0.323l-2.343-0.603l-2.355-0.569l-1.183-0.269   l-1.172-0.245l-1.195-0.257l-1.183-0.234l-2.377-0.436l-1.206-0.212l-1.194-0.189l-1.206-0.179l-1.194-0.156l-2.276-0.291   l-2.277-0.245l-2.277-0.201l-2.255-0.146l-0.178-0.122l-0.022-0.034v-0.022l-0.078-0.179l-0.079-0.234l-0.223-0.067l-0.19-0.033   l-1.652-0.045l-1.64-0.011l-1.597,0.056l-1.573,0.111l0.044-0.346l0.034-0.457l0.189-0.604l0.212-0.581l0.224-0.569l0.245-0.547   l0.502-1.127l0.525-1.105l0.547-1.094l0.58-1.072l0.581-1.083l0.614-1.06l1.284-2.088l1.351-2.065l0.703-1.015l0.736-0.994   l0.748-1.004l0.77-0.983l0.792-0.971l0.815-0.96l0.826-0.983l0.848-0.959l0.849-0.949l0.871-0.927l0.871-0.926l0.893-0.904   l0.893-0.904l0.915-0.882l0.916-0.882l0.938-0.859l0.938-0.86l0.96-0.837l0.959-0.837l0.982-0.815l0.993-0.815l1.016-0.792   l0.859-0.681l0.881-0.647l0.893-0.614l0.915-0.581l0.904-0.569l0.938-0.536l0.938-0.502l0.96-0.469l0.949-0.458l0.971-0.424   l0.982-0.391l1.004-0.357l1.005-0.335l1.027-0.301l1.026-0.279l1.049-0.246l0.335,0.291l0.324,0.313l0.313,0.324l0.301,0.346   l0.279,0.335l0.279,0.357l0.513,0.748l0.223,0.379l0.212,0.391l0.201,0.402l0.189,0.424l0.167,0.413l0.167,0.435L155.629,89.767   L155.629,89.767z M182.739,150.317l1.239,0.759l1.25,0.748l2.5,1.474l2.5,1.407l2.511,1.384l-1.607,0.927l-1.551,0.981   l-0.771,0.492l-0.748,0.514l-1.462,1.061l-0.469,0.323l-0.235,0.157l-0.223,0.167l-0.938,0.636l-0.48,0.291l-0.469,0.301   l-0.959,0.58l-0.982,0.536l-0.982,0.525l-0.502,0.244l-0.492,0.247l-1.004,0.479l-0.268,0.101l-0.256,0.111l-0.514,0.213   l-0.525,0.2l-0.514,0.212l-1.049,0.369l-0.536,0.178l-0.524,0.179l-0.547,0.157l-0.536,0.156l-0.278,0.066l-0.268,0.078   l-0.536,0.157l-0.558,0.134l-0.547,0.134l-0.558,0.122l-0.547,0.134l-1.797,0.38l-1.775,0.425l-1.752,0.458l-1.729,0.514   l-1.942,0.223l-1.942,0.2l-0.982,0.078l-0.491,0.033l-0.479,0.045l-1.942,0.124l-1.964,0.066l-0.982,0.011l-0.972,0.022h-1.964   l-0.982-0.022l-0.492-0.011h-0.479l-0.189-0.011l-0.167,0.033l-0.168,0.033l-0.145,0.078l-0.146,0.078l-0.123,0.124l-0.111,0.145   l-0.09,0.167l-0.056,0.178l-0.033,0.18l0.011,0.39l0.011,0.247v0.122l0.011,0.134v0.246v0.257l-0.067,0.491l-0.089,0.491   l-0.067,0.212l-0.057,0.224l-0.111,0.445l-0.246,0.894l-2.288-0.849l-2.299-0.848l-0.57-0.235l-0.546-0.234l-0.547-0.244   l-0.524-0.247l-0.402-0.212l-0.39-0.167l-0.803-0.302l-0.414-0.122l-0.402-0.101l-0.424-0.091l-0.413-0.056l-0.435-0.056   l-0.424-0.021l-0.447-0.012l-0.435,0.022l-0.893,0.078l-0.458,0.066l-0.447,0.102l-1.083,0.234l-1.049,0.279l-1.038,0.313   l-1.004,0.346l-1.005,0.368l-0.971,0.413l-0.971,0.436l-0.926,0.48l-0.938,0.49l-0.904,0.537l-0.904,0.569l-0.86,0.612   l-0.859,0.627l-0.837,0.669l-0.826,0.703l-0.792,0.748l-0.859,0.838l-0.771,0.858l-0.379,0.437l-0.346,0.458l-0.636,0.927   l-0.101-0.058l-0.156,0.336l-0.089,0.167l-0.078,0.179l-0.19,0.335l-0.111,0.167l-0.101,0.18l-1.395-0.905l-1.407-0.881   l-1.417-0.883l-1.428-0.858l-0.335-0.202l-0.625-0.514l-0.625-0.479l-0.636-0.458l-0.636-0.414l-0.067-0.122l-0.056-0.102   l-0.078-0.101l-0.078-0.077l-0.101-0.078l-0.1-0.045l-0.112-0.044l-0.111-0.022l-0.401-0.078l-0.547-0.302l-0.536-0.268   l-0.546-0.269l-0.547-0.234l-2.489-1.597l-2.444-1.597l-2.433-1.617l-2.4-1.642v0.033l-0.324,0.09l-0.134,0.033l-0.123,0.078   l-0.145,0.246l-0.101,0.268l-0.067,0.211l-0.022,0.258l0.201,0.223l0.256,0.258l0.301,0.256l0.034,0.078l-2.679,0.302l-2.656,0.346   l-2.656,0.369l-2.656,0.401l-1.429,0.201l-1.406,0.189l-2.835,0.357l-1.429,0.156l-1.406,0.145l-2.835,0.269l-2.835,0.2   l-2.835,0.157l-1.429,0.056l-1.406,0.045l-2.835,0.066l-2.936-0.133l-2.913-0.158l-0.48-0.021l-0.458,0.044l-0.435,0.068   l-0.402,0.123l-3.069-0.156l-1.541-0.091l-1.518-0.1l-1.54-0.123l-1.518-0.134l-1.54-0.146l-1.518-0.156l-0.58-0.078l-0.558-0.089   l-0.547-0.111l-0.513-0.122l-0.524-0.158l-0.491-0.167l-0.491-0.188l-0.458-0.191l-0.469-0.233l-0.435-0.235l-0.436-0.256   l-0.402-0.279l-0.413-0.302l-0.379-0.312l-0.38-0.336l-0.346-0.347l0.178-0.233l0.089-0.123l0.101-0.111l0.167-0.246l0.034-0.066   l0.044-0.056l0.089-0.111l0.067-0.136l0.033-0.066l0.045-0.056l0.067-0.134l0.034-0.066l0.044-0.056l0.134-0.269l0.134-0.257   l0.279-0.636l0.156-0.303l0.19-0.278l0.123-0.246l0.111-0.233l0.045-0.134l0.022-0.067v-0.023v-0.011h0.011l0.022-0.022   l0.034-0.134l0.045-0.122l-0.101-0.234l-0.034-0.157l1.351-1.584l1.395-1.574l2.824-3.138l1.183-1.306l1.216-1.262l1.217-1.239   l1.25-1.216l1.105-0.972l1.138-0.916l2.445-2.188l1.239-1.071l1.261-1.05l1.261-1.05l1.283-1.027l1.284-1.015l1.306-0.994   l5.637-4.298l5.625-4.242l0.469-0.302l0.491-0.279l0.581-0.368l-0.067-0.156l2.5-1.897l-0.123,0.011l-0.111,0.033l-0.235,0.045   l-0.223,0.045l-0.446,0.078h-0.123l-0.112,0.012l-0.223,0.021l-0.447,0.012l-2.098,1.44l-2.076,1.473l-2.076,1.474l-2.042,1.507   l-1.686,1.027l-1.641,1.095l-0.022-0.012l-0.703-1.529l-0.681-1.529l-0.659-1.552l-0.625-1.541l-0.614-1.573l-0.592-1.563   l-0.569-1.585l-0.536-1.574l-0.123-0.146l-0.111-0.111h-0.022l-0.234-1.618l-0.179-1.608l-0.156-1.629l-0.101-1.619l-0.056-0.826   l-0.033-0.815l-0.034-1.63l-0.011-1.641l0.033-1.63l0.044-1.507l0.09-1.496l0.111-1.496l0.167-1.473l0.179-1.485l0.234-1.474   l0.256-1.474l0.302-1.451l0.256-1.194l0.279-1.183l0.302-1.172l0.334-1.161l0.346-1.162l0.38-1.15l0.402-1.149l0.435-1.127   l0.067-0.123l0.067-0.134l0.101-0.246l0.1-0.246l0.011-0.067l0.022-0.056l0.044-0.112l1.027-1.317l0.145-0.201l0.168-0.179   L57.679,92l0.19-0.134l0.178-0.145l0.201-0.112l0.201-0.101l0.223-0.078l0.436-0.145l0.48-0.067l0.502-0.022l0.547,0.056   l0.982,0.123l0.491,0.067l0.503,0.089l0.982,0.167l0.993,0.212l0.971,0.212l0.982,0.257l0.96,0.257l0.972,0.301l0.948,0.301   l0.96,0.346l0.938,0.346l0.949,0.391l0.926,0.391l0.938,0.436l0.916,0.446l0.938,0.48l0.547,0.291l0.547,0.324l0.536,0.323   l0.535,0.357l1.987,1.373l0.982,0.693l0.993,0.714l1.964,1.418l1.953,1.462l0.96,0.726l0.971,0.748l1.92,1.507l1.898,1.53   l1.897,1.551l1.306,1.094l1.294,1.116l1.284,1.127l1.272,1.15l1.239,1.15l1.228,1.184l1.217,1.183l1.205,1.206l0.458,0.826   l0.503,0.815l0.211,0.324l0.234,0.324l0.235,0.301l0.256,0.301l0.525,0.536l0.569,0.491l0.211,0.357l0.201,0.391l0.157,0.391   l0.145,0.424l0.123,0.425l0.167,0.379l0.078,0.167l0.09,0.156l0.211,0.268L107,125.3l-1.083,0.168l-1.094,0.167l-1.072,0.212   h-0.034l-1.897,0.145l-1.886,0.212l-1.897,0.256l-1.875,0.324l-1.417,0.257l-1.407,0.245l-0.904,0.146l-0.882,0.189l-0.859,0.212   l-0.815,0.257l-0.814,0.279l-0.771,0.323l-0.748,0.357l-0.368,0.19l-0.346,0.212l0.011,0.089l0.011,0.033l0.033,0.034h0.045   L87,129.621h0.167l0.234-0.046l0.256-0.011l0.157,0.011l0.156,0.034l0.022-0.022v-0.012h0.011h0.023l0.066-0.021l0.111-0.045   l0.124-0.066l0.133-0.067l0.826-0.057l0.848-0.066l1.674-0.156l1.674-0.223l1.685-0.246l2.344-0.368l2.354-0.302l2.366-0.234   l2.377-0.168l2.378-0.111l2.388-0.033l2.399,0.033l2.411,0.101l0.446,0.011l0.446-0.011l0.424-0.033l0.424-0.056l2.902,0.167   l2.925,0.245l1.641,0.168l1.651,0.19l1.641,0.212l1.652,0.245l1.63,0.257l1.641,0.279l1.618,0.301l1.629,0.335l1.608,0.336   l1.618,0.368l3.215,0.793l1.585,0.412l1.596,0.458l1.585,0.469l1.596,0.502l1.439,0.458l1.44,0.491l1.429,0.503l1.428,0.524   l1.407,0.524l1.417,0.569l1.396,0.569l1.406,0.604l1.373,0.603l1.384,0.636l1.361,0.637l1.374,0.67l1.339,0.67l1.35,0.703   l1.328,0.703l1.34,0.748l1.618,0.904l1.63,0.927l3.226,1.863l3.203,1.888L182.739,150.317L182.739,150.317z M152.169,179.699   l-0.111,0.358l-0.067,0.367l-0.112,1.496l0.011,0.167l-0.468-0.056l-0.469-0.066l-0.468-0.101l-0.067-0.021l-0.022-0.012h-0.012   h-0.022l-0.111-0.022l-0.223-0.056l-2.299-0.691l-1.161-0.369l-1.149-0.357l-1.049-0.346l-1.038-0.369l-1.027-0.38l-1.016-0.39   l-0.502-0.19l-0.491-0.156l-0.491-0.122l-0.48-0.101l-0.491-0.079l-0.469-0.056l-0.468-0.033l-0.468,0.011l-0.469,0.012   l-0.468,0.056l-0.458,0.077l-0.446,0.113l-0.458,0.122l-0.446,0.156l-0.447,0.18l-0.435,0.212l-0.078,0.077l-0.056,0.101   l-0.079,0.102l-0.044,0.134l-0.279,0.111l-0.268,0.145l-0.926,0.47l0.424-0.057l0.435-0.011l0.849,0.011l0.19-0.011l0.211-0.011   l0.212-0.056l0.234-0.056l0.234-0.091l0.246-0.056l2.902,0.636l2.902,0.728l1.429,0.39l1.452,0.413l1.439,0.436l1.451,0.458   l0.335,0.312l0.368,0.27l0.391,0.233l0.414,0.2l0.413,0.157l0.457,0.123l0.469,0.078l0.502,0.044l0.424-0.011l0.045-0.011h0.056   h0.111h0.223l0.425-0.034l0.435-0.044l0.401-0.067l0.425-0.078l0.401-0.089l0.201-0.057l0.212-0.045l2.176-0.658l2.188-0.625   l2.188-0.592l2.199-0.559l2.199-0.547l2.209-0.502l2.21-0.48l2.232-0.445l0.581-0.123l0.591-0.079l0.279-0.045l0.29-0.021   l0.581-0.034l0.558-0.011l0.569,0.011l0.558,0.034l0.279,0.021l0.29,0.045l0.535,0.079l0.547,0.101l0.536,0.122l0.535,0.156   l0.514,0.167l0.525,0.213l0.513,0.223l0.525,0.258l-1.15,0.301l-1.652,0.458l-1.618,0.524l-1.596,0.581l-1.574,0.646l-1.551,0.692   l-1.529,0.76l-1.507,0.804l-1.484,0.871l-1.887,1.138l-1.863,1.183l-1.842,1.219l-1.808,1.261l-1.797,1.272l-0.892,0.647   l-0.871,0.669l-1.752,1.352l-1.708,1.396l-0.167,0.111l-0.156,0.112l-0.179,0.09l-0.167,0.089l-0.179,0.066l-0.179,0.056   l-0.189,0.045l-0.179,0.044l-0.926,0.134l-0.335,0.035l-0.312,0.045l-1.44,0.133l-1.418,0.111l-1.417,0.078l-1.407,0.045h-1.406   l-1.395-0.033l-1.396-0.067l-1.384-0.089l-0.893-0.178l-0.893-0.214l-2.232-0.591l-2.221-0.604l-2.21-0.636l-2.188-0.647   l-2.199-0.703l-2.177-0.715l-2.165-0.748l-2.154-0.759l-0.078-0.089l-0.179-0.246l-0.044-0.245l-0.011-0.247l-0.056-0.702   l0.022-0.681l0.078-0.67l0.146-0.658l0.145-0.604l0.134-0.615l-0.179-0.244l-0.122-0.111l-0.135-0.101l-0.189-0.123l-0.201-0.079   l-0.235,0.213l-0.2,0.234l-0.368,0.48l-0.168,0.244l-0.145,0.27l-0.235,0.547l-0.201,0.569l-0.123,0.592l-0.044,0.3l-0.022,0.325   l0.011,0.658l-0.279,0.022l-0.279,0.056l-0.39-0.156l-0.347-0.167l-0.323-0.19l-0.279-0.189l-0.257-0.234l-0.212-0.235l-0.19-0.256   l-0.145-0.279l0.101-0.257l0.369-0.927l0.379-0.881l0.502-0.514l0.514-0.525l0.246-0.279l0.257-0.268l0.513-0.547l0.916-1.05   l0.949-1.017l0.959-1.005l0.994-0.981l0.859-0.849l0.904-0.781l0.446-0.38l0.469-0.356l0.949-0.67l0.469-0.335l0.491-0.301   l0.993-0.57l1.016-0.513l1.038-0.458l1.061-0.425l1.082-0.357l1.105-0.301l1.127-0.245l1.149-0.202l1.172-0.145l1.194-0.089   l0.602-0.033h0.626l0.156,0.134l0.178,0.133l0.369,0.247l0.19,0.1l0.212,0.101l0.435,0.167l3.561,1.262l3.538,1.273l3.516,1.272   L152.169,179.699L152.169,179.699z M164.804,189.567l-0.491,0.169l-0.491,0.2l0.223-0.155l1.462-0.95l1.485-0.892l1.506-0.838   l1.529-0.771l1.529-0.737l1.574-0.67l1.574-0.625l1.618-0.559l-0.067,0.336l-0.044,0.167l-0.034,0.179l-0.1,0.335l-0.101,0.334   l-0.133,0.313l-0.079,0.156l-0.067,0.168l-0.089,0.145l-0.079,0.156l-0.167,0.313v0.747v0.491l0.123,0.167l0.112,0.18l0.078,0.189   l0.078,0.212l0.101,0.302l0.133,0.312l0.156,0.291l0.201,0.313l0.491,0.157l0.413-0.136l0.111-0.021h0.124l0.056,0.1l0.078,0.102   l0.19,0.179l0.402,0.278l0.179,0.157l0.178,0.178l0.145,0.168l0.146,0.188l0.122,0.191l0.124,0.211l-0.871-0.256l-0.871-0.235   l-1.741-0.412l-0.893-0.19l-0.871-0.145l-0.893-0.146l-0.881-0.1l-0.904-0.101l-0.893-0.079l-1.808-0.101l-0.916-0.033   l-0.915,0.011l-0.927,0.012L164.804,189.567L164.804,189.567z M184.793,175.447v0.233v0.258v0.233l0.178,0.179l0.19,0.167   l0.201,0.146l0.212,0.123l0.211,0.101l0.224,0.077l0.223,0.056l0.234,0.046l0.224,0.012h0.246l0.245-0.022l0.257-0.035l0.257-0.066   l0.268-0.078l0.268-0.101l0.279-0.122l0.424-0.202l0.425-0.167l0.401-0.145l0.402-0.101l0.379-0.089l0.379-0.044l0.357-0.022   l0.369,0.011l0.335,0.033l0.335,0.067l0.156,0.033l0.167,0.056l0.324,0.122l0.301,0.146l0.302,0.189l0.278,0.213l0.134,0.111   l0.146,0.134v0.246v0.245l0.034,0.246l0.011,0.111l0.033,0.145l0.458,0.47l0.502,0.458l0.525,0.413l0.546,0.412l0.246,0.178   l0.245,0.202l0.446,0.413l0.201,0.212l0.189,0.223l0.179,0.235l0.168,0.245l0.145,0.233l0.134,0.258l0.123,0.256l0.111,0.28   l0.089,0.269l0.078,0.29l0.067,0.289l0.056,0.313l-0.245,0.233l-0.223,0.28l-0.179,0.211l-0.022,1.475l-0.045,1.484l-0.022,0.213   l-0.011,0.223l-0.033,0.201l-0.022,0.212l-0.045,0.179l-0.045,0.188l-0.056,0.18l-0.045,0.179l-0.078,0.155l-0.067,0.158   l-0.044,0.066l-0.022,0.033l-0.012,0.045l-0.044,0.066l-0.022,0.033l-0.011,0.045l-0.034,0.022l-0.021,0.033l-0.046,0.066   l-0.089,0.136l-0.101,0.111l-0.033,0.022l-0.022,0.033l-0.044,0.066l-0.135,0.089l-0.122,0.09l-0.134,0.077l-0.123,0.091   l-0.157,0.056l-0.145,0.067l-0.156,0.056l-0.078,0.021l-0.066,0.034l-0.179,0.033l-0.09,0.011l-0.078,0.022l-0.188,0.022   l-0.18,0.022h-0.201l-0.201,0.011l-0.111-0.011h-0.1h-0.201l-0.212-0.09l-0.179-0.033h-0.168l-0.133,0.045l-0.781,0.357   l-0.759,0.425l-0.759,0.468l-0.748,0.547l-0.357,0.234l-0.346,0.201l-0.334,0.167l-0.313,0.146l-0.323,0.089l-0.302,0.067   l-0.301,0.033h-0.278l-0.291-0.045l-0.268-0.078l-0.267-0.112l-0.246-0.145l-0.257-0.189l-0.235-0.225l-0.223-0.256l-0.211-0.278   l-0.357-0.079l-0.19-0.034l-0.178-0.011l-0.179-0.011l-0.157,0.044l-0.211,0.18l-0.123,0.101l-0.079,0.122l-0.379,0.056   l-0.368,0.033l-0.368,0.012h-0.357l-0.358-0.033l-0.346-0.056l-0.346-0.078l-0.335-0.089l-0.669-0.402l-0.123-0.056l-0.111-0.034   l-0.034-0.256l-0.056-0.235l-0.089-0.233l-0.101-0.225l-0.179-0.278l-0.167-0.257l-0.357-0.479l-0.2-0.235l-0.201-0.211   l-0.212-0.214l-0.201-0.188l-0.234-0.201l-0.223-0.18l-0.245-0.167l-0.235-0.145l-0.257-0.155l-0.257-0.136l-0.268-0.122   l-0.268-0.101l-0.056-0.178l-0.011-0.18l0.011-0.179l0.056-0.178l0.111-0.313l0.101-0.289l0.078-0.313l0.034-0.156l0.044-0.145   l0.09-0.626l0.022-0.323l0.011-0.312l0.078-0.091l0.033-0.045l0.044-0.033l0.068-0.089l0.033-0.045l0.044-0.033l0.045-0.101   l0.056-0.09l0.101-0.201l0.156-0.569l0.993-0.3l1.004-0.258l1.004-0.234l1.027-0.213l0.067-0.111v-0.022v-0.011h0.011l0.022-0.022   l0.044-0.044l0.134-0.223l0.09-0.235l0.022-0.111l0.011-0.101l-0.022-0.212l-0.034-0.102l-0.044-0.089l-0.19-0.278l-0.178-0.258   l-0.38-0.48l-0.413-0.456l-0.212-0.213l-0.2-0.189l-0.234-0.2l-0.224-0.18l-0.468-0.323l-0.257-0.157l-0.246-0.134l-0.257-0.134   l-0.245-0.111l0.692-0.413l0.703-0.369l0.714-0.334l0.715-0.302l0.714-0.278l0.726-0.247l0.737-0.211L184.793,175.447   L184.793,175.447z M108.541,121.058l-0.056-0.079h0.033l0.067,0.022l-0.044,0.079V121.058L108.541,121.058z M113.641,125.881   l0.391-0.011l0.022,0.011l0.056,0.045L113.641,125.881L113.641,125.881z"
   id="path49" />
	<polygon
   fill-rule="evenodd"
   clip-rule="evenodd"
   points="136.833,158.634 136.822,158.656 136.811,158.656 136.811,158.667    136.767,158.667 136.744,158.667 136.733,158.667 136.733,158.678 136.667,158.7 136.5,158.746 136.343,158.813 136.187,158.969    135.896,159.293 135.762,159.461 135.651,159.649 135.438,160.03 135.283,160.443 134.813,160.655 134.691,160.699    134.579,160.755 134.356,160.855 133.887,161.023 133.82,161.035 133.765,161.058 133.653,161.102 133.43,161.19 133.184,161.246    132.95,161.313 132.705,161.369 132.582,161.392 132.47,161.425 131.979,161.504 131.733,161.537 131.499,161.582 131.153,161.336    130.817,161.113 130.472,160.9 130.126,160.711 129.757,160.51 129.389,160.342 129.01,160.175 128.642,160.03 128.15,160.186    128.062,160.319 128.017,160.466 127.938,160.677 127.894,160.934 128.139,161.169 128.407,161.402 128.675,161.615    128.965,161.815 129.256,161.982 129.567,162.151 129.881,162.296 130.215,162.43 130.55,162.53 130.884,162.63 131.209,162.721    131.543,162.799 131.688,162.821 131.845,162.854 132.157,162.898 132.224,162.898 132.302,162.91 132.459,162.933 132.76,162.955    133.039,162.955 133.173,162.943 133.318,162.943 133.585,162.921 133.854,162.888 134.099,162.832 134.155,162.81    134.222,162.799 134.356,162.776 134.601,162.697 134.847,162.619 135.059,162.508 135.283,162.385 135.494,162.252    135.539,162.207 135.595,162.174 135.707,162.105 135.795,162.017 135.84,161.972 135.896,161.938 136.097,161.771    136.187,161.671 136.287,161.582 136.376,161.481 136.477,161.392 136.633,161.169 136.8,160.944 136.957,160.699 137.112,160.454    137.247,160.175 137.313,160.03 137.392,159.896 137.526,159.605 137.66,159.305 137.548,159.17 137.459,159.08 137.157,158.847    136.833,158.634  "
   id="polygon51" />
	<polygon
   fill-rule="evenodd"
   clip-rule="evenodd"
   points="119.802,146.287 119.98,146.153 120.17,146.02 120.204,145.975    120.249,145.941 120.337,145.874 120.372,145.83 120.416,145.797 120.505,145.729 120.572,145.64 120.605,145.596 120.65,145.562    120.795,145.406 120.918,145.228 121.052,145.06 121.153,144.858 121.264,144.669 121.353,144.457 121.443,144.256 121.51,144.033    121.577,143.81 121.621,143.575 121.677,143.352 121.744,142.715 121.755,142.402 121.767,142.112 121.744,141.521 121.7,140.974    121.644,140.694 121.587,140.438 121.432,139.936 121.23,139.456 121.119,139.221 121.007,139.009 120.717,138.574 120.55,138.361    120.383,138.172 120.003,137.781 119.601,137.436 119.367,137.256 119.132,137.101 118.619,136.798 118.061,136.52 117.48,136.263    116.99,136.341 116.621,136.419 116.286,136.531 115.962,136.665 115.683,136.844 115.405,137.033 115.148,137.268    114.914,137.524 114.701,137.814 114.634,138.439 114.612,139.064 114.623,139.667 114.646,139.958 114.69,140.26 114.723,140.538    114.78,140.828 114.914,141.387 115.081,141.934 115.304,142.47 115.539,142.983 115.672,143.229 115.829,143.485 116.152,143.966    116.521,144.445 116.911,144.892 117.358,145.339 117.837,145.763 118.362,146.187 118.541,146.298 118.719,146.388    118.898,146.443 118.987,146.455 119.087,146.478 119.266,146.466 119.445,146.443 119.624,146.377 119.802,146.287  "
   id="polygon53" />
	<polygon
   fill-rule="evenodd"
   clip-rule="evenodd"
   points="106.967,161.324 106.799,161.516 106.677,161.76 107.022,162.174    107.391,162.553 107.77,162.898 108.183,163.212 108.596,163.468 109.031,163.691 109.478,163.87 109.947,164.026 110.416,164.115    110.906,164.183 111.409,164.205 111.944,164.193 112.48,164.127 113.038,164.026 113.608,163.893 114.21,163.713 114.389,163.568    114.556,163.435 114.712,163.301 114.78,163.224 114.858,163.155 115.002,163.021 115.248,162.731 115.349,162.574    115.394,162.496 115.449,162.43 115.516,162.263 115.583,162.105 115.605,162.017 115.616,161.972 115.639,161.938    115.694,161.782 115.717,161.604 115.74,161.436 115.75,161.258 115.75,161.169 115.75,161.124 115.75,161.102 115.762,161.091    115.672,160.978 115.572,160.9 115.382,160.777 115.192,160.677 115.181,160.677 115.181,160.688 115.181,160.711 115.181,160.732    114.858,160.8 114.701,160.855 114.255,161.235 114.032,161.414 113.92,161.493 113.819,161.582 113.373,161.871 113.15,162.005    113.038,162.061 112.938,162.129 112.704,162.218 112.48,162.308 112.257,162.385 112.034,162.452 111.565,162.541    111.341,162.574 111.119,162.597 110.649,162.574 110.405,162.553 110.181,162.519 109.713,162.407 109.244,162.252    108.752,162.027 108.507,161.905 108.284,161.771 108.038,161.615 107.792,161.447 107.324,161.091 107.134,161.18    106.967,161.324  "
   id="polygon55" />
</g>
</svg>